<?xml version="1.0" standalone="no"?>
<!DOCTYPE svg PUBLIC "-//W3C//DTD SVG 20010904//EN"
 "http://www.w3.org/TR/2001/REC-SVG-20010904/DTD/svg10.dtd">
<svg version="1.0" xmlns="http://www.w3.org/2000/svg"
 width="253.000000pt" height="253.000000pt" viewBox="0 0 253.000000 253.000000"
 preserveAspectRatio="xMidYMid meet">
<metadata>
Created by potrace 1.14, written by Peter Selinger 2001-2017
</metadata>
<g transform="translate(0.000000,253.000000) scale(0.100000,-0.100000)"
fill="#000000" stroke="none">
<path d="M1054 1868 c-3 -5 -12 -7 -20 -4 -8 3 -14 1 -14 -4 0 -5 -10 -12 -22
-15 -13 -4 -38 -23 -55 -42 -18 -19 -33 -31 -33 -28 0 4 -7 0 -15 -9 -8 -8
-15 -19 -15 -25 0 -6 -4 -11 -8 -11 -12 0 -62 -79 -62 -96 0 -9 -4 -13 -9 -10
-4 3 -7 -6 -5 -19 1 -14 -2 -25 -7 -25 -5 0 -8 -3 -7 -7 1 -9 -9 -41 -24 -67
-5 -11 -10 -46 -9 -79 1 -56 3 -61 43 -99 24 -22 44 -44 44 -49 1 -5 3 -11 4
-14 1 -3 3 -9 4 -14 0 -5 4 -12 8 -16 4 -4 4 -13 1 -21 -3 -8 0 -20 6 -28 6
-7 8 -16 5 -19 -4 -4 1 -18 11 -33 9 -15 12 -23 5 -19 -8 5 -7 0 2 -14 7 -12
16 -21 21 -21 4 0 6 -4 2 -9 -3 -5 1 -16 9 -24 8 -8 12 -17 9 -21 -4 -3 -1 -6
6 -6 7 0 9 -4 6 -10 -3 -5 -1 -10 4 -10 6 0 11 -7 11 -15 0 -8 5 -15 10 -15 6
0 10 -4 10 -10 0 -5 12 -22 26 -37 14 -15 38 -40 52 -55 14 -16 32 -28 41 -28
9 -1 26 -6 38 -13 l23 -13 -25 -26 c-13 -15 -26 -33 -27 -40 -2 -7 -13 -23
-26 -36 -13 -12 -20 -27 -17 -32 3 -6 1 -10 -4 -10 -6 0 -11 -7 -11 -15 0 -8
-4 -15 -10 -15 -5 0 -9 -3 -8 -7 3 -15 -14 -43 -23 -37 -5 3 -6 -1 -3 -9 3 -8
-2 -20 -10 -27 -9 -7 -13 -16 -10 -21 3 -5 0 -9 -6 -9 -6 0 -8 -4 -5 -10 3 -5
1 -10 -5 -10 -6 0 -8 -4 -5 -10 3 -6 1 -10 -5 -10 -6 0 -8 -4 -5 -10 3 -5 3
-16 -2 -22 -4 -7 -8 -20 -8 -28 0 -8 -5 -22 -10 -30 -5 -8 -10 -17 -11 -20 -4
-22 -47 -100 -54 -100 -6 0 -9 -3 -8 -7 4 -14 -13 -53 -23 -53 -5 0 -9 -7 -9
-15 0 -8 -5 -15 -11 -15 -5 0 -7 -5 -4 -10 3 -6 1 -10 -4 -10 -6 0 -11 -7 -11
-15 0 -7 -8 -19 -17 -24 -10 -6 -14 -11 -10 -11 5 0 -8 -20 -27 -44 -20 -23
-36 -48 -36 -54 0 -6 -6 -13 -12 -15 -7 -3 357 -6 809 -6 l823 -1 -4 30 c-2
17 0 30 4 30 4 0 7 7 7 15 0 8 -5 15 -11 15 -7 0 -7 3 -1 8 13 9 15 52 2 52
-5 0 -5 5 2 13 6 8 8 17 4 21 -4 3 -8 25 -10 48 -2 23 -7 45 -12 48 -4 3 -7
13 -5 22 1 10 -2 20 -7 24 -5 3 -7 10 -4 15 4 5 2 9 -4 9 -6 0 -8 7 -5 15 4 8
1 22 -6 30 -6 8 -9 19 -6 24 4 5 2 12 -4 16 -5 3 -10 15 -10 26 0 10 -5 19
-11 19 -5 0 -8 4 -4 9 3 5 -2 17 -11 25 -8 9 -12 16 -8 16 3 0 1 7 -6 15 -7 8
-9 15 -4 15 5 0 2 6 -6 13 -8 7 -24 30 -35 52 -11 22 -22 42 -25 45 -3 3 -10
14 -17 25 -6 11 -16 19 -22 18 -6 -2 -8 4 -5 12 4 8 -1 17 -10 21 -9 3 -16 12
-16 20 0 8 -7 14 -16 14 -8 0 -12 5 -9 10 3 6 -1 10 -10 10 -9 0 -14 4 -10 9
3 6 -5 15 -17 22 -32 17 -48 35 -40 44 4 5 2 5 -5 2 -6 -4 -25 4 -41 18 -16
14 -35 25 -41 25 -6 0 -11 4 -11 8 0 5 -11 15 -25 22 -13 7 -27 22 -31 32 -3
10 -10 16 -15 13 -5 -4 -9 -1 -9 6 0 7 -3 10 -6 6 -8 -7 -64 13 -64 24 0 4 -7
6 -15 3 -8 -4 -15 -2 -15 4 0 5 -15 8 -32 6 -38 -4 -57 8 -78 51 -8 17 -21 38
-29 48 -8 9 -11 17 -8 17 3 0 -1 12 -8 27 -11 21 -12 29 -2 35 9 6 9 8 0 8 -6
0 -11 9 -10 20 1 11 5 20 9 20 4 0 5 9 3 20 -2 11 -1 20 3 20 19 0 20 152 2
158 -27 9 -60 54 -50 67 5 6 8 14 5 17 -3 2 -6 23 -7 46 -1 23 -6 42 -11 42
-5 0 -5 6 2 13 8 10 7 17 -2 27 -9 10 -9 11 1 6 6 -4 12 -2 12 3 0 6 -5 11
-11 11 -6 0 -9 6 -6 13 6 17 -31 67 -49 67 -8 0 -13 4 -9 10 6 10 -65 50 -90
50 -8 0 -15 4 -15 8 0 5 -20 9 -44 11 -25 1 -55 4 -68 7 -44 10 -138 12 -144
2z"/>
</g>
</svg>
